{
  "accessors": [
    {
      "bufferView": 0,
      "componentType": 5125,
      "count": 3396,
      "type": "SCALAR"
    },
    {
      "bufferView": 1,
      "componentType": 5126,
      "count": 806,
      "max": [
        0.571435987949371,
        0.151582270860672,
        0.999999940395355
      ],
      "min": [
        -0.571435987949371,
        -0.151582255959511,
        -0.999999940395355
      ],
      "type": "VEC3"
    },
    {
      "bufferView": 2,
      "componentType": 5126,
      "count": 806,
      "type": "VEC3"
    },
    {
      "bufferView": 3,
      "componentType": 5126,
      "count": 806,
      "type": "VEC2"
    }
  ],
  "asset": {
    "generator": "Substance Painter 2018.2.1",
    "version": "2.0"
  },
  "bufferViews": [
    {
      "buffer": 0,
      "byteLength": 13584,
      "target": 34963
    },
    {
      "buffer": 0,
      "byteLength": 9672,
      "byteOffset": 13584,
      "target": 34962
    },
    {
      "buffer": 0,
      "byteLength": 9672,
      "byteOffset": 23256,
      "target": 34962
    },
    {
      "buffer": 0,
      "byteLength": 6448,
      "byteOffset": 32928,
      "target": 34962
    }
  ],
  "buffers": [
    {
      "byteLength": 39376,
      "uri": "GadgetPainted.bin"
    }
  ],
  "images": [
    {
      "uri": "1001_baseColor.png"
    },
    {
      "uri": "1001_occlusionRoughnessMetallic.png"
    },
    {
      "uri": "1001_normal.png"
    }
  ],
  "materials": [
    {
      "alphaMode": "OPAQUE",
      "name": "1001",
      "normalTexture": {
        "index": 2
      },
      "occlusionTexture": {
        "index": 1
      },
      "pbrMetallicRoughness": {
        "baseColorTexture": {
          "index": 0
        },
        "metallicFactor": 0.8,
        "roughnessFactor": 0.5
      },
      "emissiveFactor": [
        0.05,
        0.05,
        0.05
      ]
    }
  ],
  "meshes": [
    {
      "name": "polySurface2_1001",
      "primitives": [
        {
          "attributes": {
            "NORMAL": 2,
            "POSITION": 1,
            "TEXCOORD_0": 3
          },
          "indices": 0,
          "material": 0,
          "mode": 4
        }
      ]
    }
  ],
  "nodes": [
    {
      "children": [
        1
      ],
      "name": "root",
      "scale": [
        0.874988615512848,
        0.874988615512848,
        0.874988615512848
      ],
      "translation": [
        0.0,
        0.0586509928107262,
        0.0
      ]
    },
    {
      "children": [
        2
      ],
      "name": "polySurface2"
    },
    {
      "mesh": 0,
      "name": "polySurface2_1001"
    }
  ],
  "samplers": [
    {
      "magFilter": 9729,
      "minFilter": 9985,
      "wrapS": 10497,
      "wrapT": 10497
    }
  ],
  "scene": 0,
  "scenes": [
    {
      "name": "Scene",
      "nodes": [
        0
      ]
    }
  ],
  "textures": [
    {
      "sampler": 0,
      "source": 0
    },
    {
      "sampler": 0,
      "source": 1
    },
    {
      "sampler": 0,
      "source": 2
    }
  ]
}